<mxfile host="65bd71144e" scale="4" border="0">
    <diagram id="h_6NqMOrb0IaFZeNSbwH" name="ページ1">
        <mxGraphModel dx="772" dy="568" grid="1" gridSize="10" guides="1" tooltips="1" connect="1" arrows="1" fold="1" page="1" pageScale="1" pageWidth="1654" pageHeight="1169" background="#ffffff" math="0" shadow="0">
            <root>
                <mxCell id="0"/>
                <mxCell id="1" parent="0"/>
                <mxCell id="2" value="&lt;font style=&quot;font-size: 18px;&quot;&gt;FP16&lt;/font&gt;" style="rounded=0;whiteSpace=wrap;html=1;" vertex="1" parent="1">
                    <mxGeometry x="160" y="80" width="80" height="40" as="geometry"/>
                </mxCell>
                <mxCell id="3" value="&lt;font style=&quot;font-size: 18px;&quot;&gt;wavelet&lt;/font&gt;" style="swimlane;whiteSpace=wrap;html=1;" vertex="1" parent="1">
                    <mxGeometry x="80" y="160" width="210" height="80" as="geometry"/>
                </mxCell>
                <mxCell id="4" value="&lt;font style=&quot;font-size: 18px;&quot;&gt;FP16&lt;/font&gt;" style="rounded=0;whiteSpace=wrap;html=1;" vertex="1" parent="3">
                    <mxGeometry x="50" y="30" width="80" height="40" as="geometry"/>
                </mxCell>
                <mxCell id="5" value="&lt;font style=&quot;font-size: 18px;&quot;&gt;tag&lt;/font&gt;" style="shape=hexagon;perimeter=hexagonPerimeter2;whiteSpace=wrap;html=1;fixedSize=1;size=10;" vertex="1" parent="3">
                    <mxGeometry x="130" y="30" width="70" height="40" as="geometry"/>
                </mxCell>
                <mxCell id="12" value="" style="group" vertex="1" connectable="0" parent="1">
                    <mxGeometry x="330" y="80" width="320" height="40" as="geometry"/>
                </mxCell>
                <mxCell id="6" value="" style="rounded=0;whiteSpace=wrap;html=1;" vertex="1" parent="12">
                    <mxGeometry width="320" height="40" as="geometry"/>
                </mxCell>
                <mxCell id="8" value="&lt;font style=&quot;font-size: 18px;&quot;&gt;FP16&lt;/font&gt;" style="rounded=0;whiteSpace=wrap;html=1;" vertex="1" parent="12">
                    <mxGeometry x="160" width="80" height="40" as="geometry"/>
                </mxCell>
                <mxCell id="9" value="&lt;font style=&quot;font-size: 18px;&quot;&gt;FP16&lt;/font&gt;" style="rounded=0;whiteSpace=wrap;html=1;" vertex="1" parent="12">
                    <mxGeometry x="80" width="80" height="40" as="geometry"/>
                </mxCell>
                <mxCell id="10" value="&lt;font style=&quot;font-size: 18px;&quot;&gt;FP16&lt;/font&gt;" style="rounded=0;whiteSpace=wrap;html=1;" vertex="1" parent="12">
                    <mxGeometry width="80" height="40" as="geometry"/>
                </mxCell>
                <mxCell id="11" value="&lt;font style=&quot;font-size: 18px;&quot;&gt;FP16&lt;/font&gt;" style="rounded=0;whiteSpace=wrap;html=1;" vertex="1" parent="12">
                    <mxGeometry x="240" width="80" height="40" as="geometry"/>
                </mxCell>
                <mxCell id="16" value="" style="endArrow=none;html=1;" edge="1" parent="1">
                    <mxGeometry width="50" height="50" relative="1" as="geometry">
                        <mxPoint x="310" y="280" as="sourcePoint"/>
                        <mxPoint x="310" y="60" as="targetPoint"/>
                    </mxGeometry>
                </mxCell>
                <mxCell id="17" value="&lt;font style=&quot;font-size: 18px;&quot;&gt;wavelet&lt;/font&gt;" style="swimlane;whiteSpace=wrap;html=1;" vertex="1" parent="1">
                    <mxGeometry x="350" y="160" width="210" height="80" as="geometry"/>
                </mxCell>
                <mxCell id="18" value="&lt;font style=&quot;font-size: 18px;&quot;&gt;FP16&lt;/font&gt;" style="rounded=0;whiteSpace=wrap;html=1;" vertex="1" parent="17">
                    <mxGeometry x="50" y="30" width="80" height="40" as="geometry"/>
                </mxCell>
                <mxCell id="19" value="&lt;font style=&quot;font-size: 18px;&quot;&gt;tag&lt;/font&gt;" style="shape=hexagon;perimeter=hexagonPerimeter2;whiteSpace=wrap;html=1;fixedSize=1;size=10;" vertex="1" parent="17">
                    <mxGeometry x="130" y="30" width="70" height="40" as="geometry"/>
                </mxCell>
                <mxCell id="21" value="&lt;font style=&quot;font-size: 24px;&quot;&gt;x4&lt;/font&gt;" style="text;html=1;align=center;verticalAlign=middle;whiteSpace=wrap;rounded=0;" vertex="1" parent="1">
                    <mxGeometry x="570" y="185" width="60" height="30" as="geometry"/>
                </mxCell>
            </root>
        </mxGraphModel>
    </diagram>
</mxfile>